<svg version="1.0" xmlns="http://www.w3.org/2000/svg"
 width="18" height="18" viewBox="0 0 30.000000 30.000000"
 preserveAspectRatio="xMidYMid meet">

<g transform="translate(0.000000,30.000000) scale(0.100000,-0.100000)"
fill="#000000" stroke="none">
<path d="M121 246 c-15 -24 -31 -36 -56 -40 -46 -9 -50 -19 -20 -54 18 -22 25
-42 25 -72 0 -41 1 -42 28 -34 34 10 70 10 105 0 26 -8 27 -7 27 34 0 30 7 50
25 72 30 35 26 45 -20 54 -25 4 -41 16 -56 40 -11 19 -24 34 -29 34 -5 0 -18
-15 -29 -34z m89 -53 c40 -9 42 -13 20 -40 -11 -14 -20 -40 -20 -58 0 -33 0
-33 -30 -22 l-30 11 0 86 c1 85 1 85 18 57 9 -15 28 -31 42 -34z"/>
</g>
</svg>
